<svg xmlns="http://www.w3.org/2000/svg" style="display: none;"><symbol id="mouse" viewBox="0 0 210.414 210.414"><title>mouse</title><path d="M105.207,0C66.532,0,35.069,31.45,35.069,70.104v70.21c0,38.653,31.463,70.1,70.138,70.1 c38.675,0,70.138-31.446,70.138-70.1v-70.21C175.345,31.45,143.881,0,105.207,0z M167.552,140.314 c0,34.357-27.968,62.307-62.345,62.307c-34.377,0-62.345-27.95-62.345-62.307v-70.21c0-34.357,27.968-62.311,62.345-62.311 c34.377,0,62.345,27.953,62.345,62.311V140.314z"/><path d="M105.207,23.379c-2.152,0-3.897,1.743-3.897,3.897v35.286c0,2.154,1.745,3.897,3.897,3.897 c2.152,0,3.897-1.743,3.897-3.897V27.276C109.103,25.122,107.359,23.379,105.207,23.379z"/></symbol><symbol id="play-button" viewBox="0 0 41.999 41.999"><title>play-button</title><path d="M36.068,20.176l-29-20C6.761-0.035,6.363-0.057,6.035,0.114C5.706,0.287,5.5,0.627,5.5,0.999v40 c0,0.372,0.206,0.713,0.535,0.886c0.146,0.076,0.306,0.114,0.465,0.114c0.199,0,0.397-0.06,0.568-0.177l29-20 c0.271-0.187,0.432-0.494,0.432-0.823S36.338,20.363,36.068,20.176z"/></symbol><symbol id="play" viewBox="0 0 314.068 314.068"><title>play</title><path d="M293.002,78.53C249.646,3.435,153.618-22.296,78.529,21.068C3.434,64.418-22.298,160.442,21.066,235.534 c43.35,75.095,139.375,100.83,214.465,57.47C310.627,249.639,336.371,153.62,293.002,78.53z M219.834,265.801 c-60.067,34.692-136.894,14.106-171.576-45.973C13.568,159.761,34.161,82.935,94.23,48.26 c60.071-34.69,136.894-14.106,171.578,45.971C300.493,154.307,279.906,231.117,219.834,265.801z M213.555,150.652l-82.214-47.949 c-7.492-4.374-13.535-0.877-13.493,7.789l0.421,95.174c0.038,8.664,6.155,12.191,13.669,7.851l81.585-47.103 C221.029,162.082,221.045,155.026,213.555,150.652z"/></symbol></svg>